<svg width="22" height="22" viewBox="0 0 22 22" fill="none" xmlns="http://www.w3.org/2000/svg">
<path fill-rule="evenodd" clip-rule="evenodd" d="M6.08966 5.59906C6.43136 5.25735 6.98538 5.25735 7.32709 5.59905L11.0834 9.35534L14.8397 5.59906C15.1814 5.25735 15.7354 5.25735 16.0771 5.59905C16.4188 5.94076 16.4188 6.49478 16.0771 6.83649L12.3208 10.5928L16.0771 14.3491C16.4188 14.6908 16.4188 15.2448 16.0771 15.5865C15.7354 15.9282 15.1814 15.9282 14.8397 15.5865L11.0834 11.8302L7.32709 15.5865C6.98538 15.9282 6.43136 15.9282 6.08966 15.5865C5.74795 15.2448 5.74795 14.6908 6.08966 14.3491L9.84594 10.5928L6.08966 6.83649C5.74795 6.49478 5.74795 5.94076 6.08966 5.59906Z" fill="#F25555"/>
</svg>
