<svg width="24" height="25" viewBox="0 0 24 25" fill="none" xmlns="http://www.w3.org/2000/svg">
<path d="M11 17.2615H13V11.2615H11V17.2615ZM12 9.26147C12.2833 9.26147 12.521 9.16547 12.713 8.97347C12.905 8.78147 13.0007 8.54414 13 8.26147C12.9993 7.97881 12.9033 7.74147 12.712 7.54947C12.5207 7.35747 12.2833 7.26147 12 7.26147C11.7167 7.26147 11.4793 7.35747 11.288 7.54947C11.0967 7.74147 11.0007 7.97881 11 8.26147C10.9993 8.54414 11.0953 8.78181 11.288 8.97447C11.4807 9.16714 11.718 9.26281 12 9.26147ZM12 22.2615C10.6167 22.2615 9.31667 21.9988 8.1 21.4735C6.88334 20.9481 5.825 20.2358 4.925 19.3365C4.025 18.4371 3.31267 17.3788 2.788 16.1615C2.26333 14.9441 2.00067 13.6441 2 12.2615C1.99933 10.8788 2.262 9.57881 2.788 8.36147C3.314 7.14414 4.02633 6.08581 4.925 5.18647C5.82367 4.28714 6.882 3.57481 8.1 3.04947C9.318 2.52414 10.618 2.26147 12 2.26147C13.382 2.26147 14.682 2.52414 15.9 3.04947C17.118 3.57481 18.1763 4.28714 19.075 5.18647C19.9737 6.08581 20.6863 7.14414 21.213 8.36147C21.7397 9.57881 22.002 10.8788 22 12.2615C21.998 13.6441 21.7353 14.9441 21.212 16.1615C20.6887 17.3788 19.9763 18.4371 19.075 19.3365C18.1737 20.2358 17.1153 20.9485 15.9 21.4745C14.6847 22.0005 13.3847 22.2628 12 22.2615ZM12 20.2615C14.2333 20.2615 16.125 19.4865 17.675 17.9365C19.225 16.3865 20 14.4948 20 12.2615C20 10.0281 19.225 8.13647 17.675 6.58647C16.125 5.03647 14.2333 4.26147 12 4.26147C9.76667 4.26147 7.875 5.03647 6.325 6.58647C4.775 8.13647 4 10.0281 4 12.2615C4 14.4948 4.775 16.3865 6.325 17.9365C7.875 19.4865 9.76667 20.2615 12 20.2615Z" fill="white"/>
</svg>
