<svg width="34" height="33" viewBox="0 0 34 33" fill="none" xmlns="http://www.w3.org/2000/svg">
<g clip-path="url(#clip0_1062_936)">
<path d="M33.5532 15.5136C33.5532 16.19 33.5532 16.8664 33.5344 17.5804C33.4926 17.872 33.4833 18.128 33.4443 18.3794C33.3357 19.0791 33.2503 19.785 33.0912 20.4736C32.7461 21.9676 32.1662 23.3733 31.4142 24.711C30.7303 25.9275 29.8957 27.032 28.9345 28.0355C28.4176 28.5752 27.8536 29.0771 27.268 29.5419C26.103 30.4666 24.8235 31.2081 23.4498 31.7843C22.0115 32.3877 20.5224 32.7927 18.9678 32.9488C18.7283 32.9729 18.491 33.0179 18.2527 33.0532C17.4697 33.0532 16.6867 33.0532 15.8662 33.0344C15.4445 32.9752 15.0542 32.9652 14.6775 32.8883C13.7708 32.7033 12.8568 32.5334 11.971 32.2718C10.7917 31.9236 9.67688 31.408 8.62066 30.7683C7.51966 30.1016 6.48783 29.3455 5.57142 28.4416C5.15101 28.0269 4.75855 27.5825 4.37014 27.137C3.60058 26.2543 2.96323 25.2793 2.41781 24.245C1.87576 23.2172 1.45004 22.1418 1.13787 21.0216C0.909209 20.201 0.741002 19.3697 0.657398 18.5213C0.633799 18.2818 0.588545 18.0444 0.553223 17.8061C0.553223 16.9875 0.553223 16.1689 0.572022 15.3129C0.666659 14.6842 0.722548 14.0897 0.822083 13.5026C1.11771 11.7587 1.72109 10.1217 2.58037 8.57771C3.58303 6.77604 4.85701 5.20025 6.44903 3.88143C7.44695 3.05475 8.50545 2.31562 9.6774 1.77049C10.5716 1.35453 11.4981 0.98602 12.4429 0.706941C13.3189 0.448171 14.2376 0.332845 15.1388 0.161181C15.3925 0.112852 15.6508 0.0885468 15.907 0.0532227C16.6367 0.0532227 17.3664 0.0532227 18.1338 0.0720779C18.8065 0.167052 19.4454 0.220957 20.0762 0.323907C21.3958 0.539283 22.6608 0.951651 23.873 1.50786C25.0633 2.05401 26.1791 2.72689 27.2154 3.53819C28.2549 4.35191 29.1899 5.2666 30.0035 6.29893C30.9018 7.43877 31.6518 8.67438 32.2189 10.0157C32.8602 11.5323 33.3019 13.1 33.449 14.7454C33.472 15.0025 33.5179 15.2576 33.5532 15.5136ZM3.48793 10.1089C2.49052 12.1918 2.03621 14.4004 2.00155 16.6973C1.99335 17.2413 2.09052 17.7874 2.14807 18.3316C2.31482 19.9084 2.75223 21.4111 3.42093 22.8455C4.68905 25.5657 6.60737 27.7169 9.14647 29.3093C11.2929 30.6555 13.648 31.3885 16.1684 31.5459C17.0208 31.5991 17.8863 31.5287 18.7402 31.4516C20.4822 31.2943 22.1342 30.786 23.6951 30.007C26.2239 28.7449 28.2491 26.9136 29.7569 24.5194C31.2292 22.1814 31.9763 19.6222 32.0555 16.8661C32.0667 16.4782 32.0271 16.0887 32.0067 15.7002C31.9886 15.3551 31.985 15.0076 31.9399 14.6658C31.6861 12.7449 31.0959 10.9343 30.1515 9.23878C29.2418 7.60564 28.0667 6.19018 26.6276 5.00625C24.5151 3.26832 22.1191 2.14884 19.3932 1.74368C18.2383 1.57201 17.0914 1.50481 15.9275 1.59196C14.977 1.66313 14.046 1.81899 13.1271 2.06505C10.5739 2.74875 8.36559 4.0383 6.48802 5.88689C5.25131 7.1045 4.25102 8.50057 3.48793 10.1089Z" fill="#DBDBDB"/>
<path d="M3.49671 10.091C4.25118 8.50067 5.25147 7.10461 6.48817 5.887C8.36574 4.03841 10.5741 2.74886 13.1273 2.06515C14.0461 1.81909 14.9772 1.66324 15.9276 1.59207C17.0915 1.50492 18.2385 1.57212 19.3934 1.74378C22.1192 2.14894 24.5152 3.26842 26.6277 5.00636C28.0669 6.19029 29.242 7.60575 30.1516 9.23888C31.0961 10.9345 31.6862 12.745 31.94 14.6659C31.9852 15.0077 31.9888 15.3552 32.0069 15.7003C32.0272 16.0888 32.0668 16.4783 32.0557 16.8662C31.9765 19.6223 31.2294 22.1815 29.757 24.5195C28.2493 26.9137 26.2241 28.745 23.6952 30.0071C22.1343 30.7861 20.4824 31.2944 18.7403 31.4517C17.8865 31.5288 17.0209 31.5992 16.1686 31.546C13.6481 31.3886 11.293 30.6556 9.14662 29.3095C6.60752 27.717 4.68921 25.5658 3.42109 22.8456C2.75239 21.4112 2.31497 19.9086 2.14822 18.3317C2.09068 17.7875 1.9935 17.2414 2.00171 16.6974C2.03636 14.4005 2.49068 12.1919 3.49671 10.091ZM22.3542 4.5616C16.0836 1.80849 8.76407 4.24394 5.4689 10.4126C3.81352 13.5116 3.48146 16.7894 4.44505 20.18C4.96862 22.0224 5.87398 23.6579 7.15235 25.1357C7.18575 25.0544 7.20487 25.0247 7.21008 24.9928C7.45017 23.5206 7.85962 22.101 8.55359 20.775C9.10425 19.7229 9.88609 18.9072 10.9894 18.4118C12.1784 17.8778 13.3993 17.9359 14.6363 18.1518C15.1946 18.2492 15.7494 18.3897 16.312 18.4359C17.2981 18.517 18.2771 18.4039 19.2437 18.1928C20.1889 17.9863 21.1487 17.9229 22.0967 18.0963C23.2163 18.3011 24.1607 18.8672 24.8673 19.7674C26.0369 21.2574 26.5163 23.0244 26.8397 24.848C26.8549 24.9337 26.8904 25.0158 26.9413 25.1793C27.2657 24.7452 27.5509 24.3846 27.8139 24.0084C29.2216 21.9946 30.0126 19.7558 30.1224 17.3051C30.1654 16.3461 30.1098 15.3678 29.9673 14.418C29.5756 11.807 28.4168 9.5467 26.6286 7.61293C25.4264 6.31294 24.0059 5.30728 22.3542 4.5616Z" fill="white"/>
<path d="M22.3725 4.57016C24.0059 5.30732 25.4264 6.31298 26.6285 7.61297C28.4167 9.54674 29.5756 11.807 29.9673 14.4181C30.1097 15.3678 30.1653 16.3461 30.1223 17.3052C30.0125 19.7558 29.2216 21.9946 27.8138 24.0084C27.5509 24.3846 27.2657 24.7453 26.9412 25.1793C26.8904 25.0159 26.8549 24.9338 26.8397 24.8481C26.5162 23.0245 26.0368 21.2574 24.8672 19.7674C24.1606 18.8673 23.2163 18.3011 22.0967 18.0963C21.1487 17.9229 20.1889 17.9864 19.2437 18.1928C18.2771 18.4039 17.298 18.5171 16.3119 18.436C15.7494 18.3897 15.1946 18.2492 14.6362 18.1518C13.3992 17.9359 12.1783 17.8778 10.9893 18.4118C9.88604 18.9073 9.1042 19.723 8.55354 20.7751C7.85957 22.101 7.45012 23.5206 7.21003 24.9928C7.20482 25.0248 7.1857 25.0545 7.1523 25.1358C5.87392 23.6579 4.96856 22.0224 4.445 20.1801C3.48141 16.7894 3.81346 13.5116 5.46885 10.4126C8.76402 4.24398 16.0835 1.80854 22.3725 4.57016ZM12.413 10.0828C12.1811 10.922 12.1041 11.7528 12.3308 12.6209C12.8789 14.7193 14.5075 16.1143 16.7443 16.3551C17.6149 16.4488 18.4576 16.2116 19.2347 15.8154C21.0691 14.8803 22.0987 12.9402 21.834 10.8446C21.5471 8.57234 19.587 6.70853 17.1516 6.66653C14.9609 6.62875 13.1399 7.94044 12.413 10.0828Z" fill="#DBDBDB"/>
<path d="M12.4208 10.0629C13.1398 7.94048 14.9608 6.62879 17.1515 6.66657C19.5869 6.70857 21.547 8.57237 21.8339 10.8446C22.0986 12.9402 21.069 14.8803 19.2346 15.8154C18.4575 16.2116 17.6148 16.4488 16.7442 16.3551C14.5074 16.1143 12.8788 14.7193 12.3307 12.6209C12.104 11.7529 12.181 10.9221 12.4208 10.0629Z" fill="white"/>
</g>
<defs>
<clipPath id="clip0_1062_936">
<rect width="33" height="33" fill="white" transform="translate(0.5)"/>
</clipPath>
</defs>
</svg>
